<svg width="26" height="26" viewBox="0 0 26 26" fill="none" xmlns="http://www.w3.org/2000/svg">
<g clip-path="url(#clip0_12153_5403)" filter="url(#filter0_d_12153_5403)">
<path d="M14.2471 10.0963C14.2203 10.0963 14.1943 10.0869 14.1735 10.0674C14.1319 10.0274 14.131 9.96192 14.1709 9.9211C14.3303 9.75955 14.5106 9.6405 14.7073 9.56738C14.9595 9.47299 15.1502 9.48235 15.6104 9.50446C15.7057 9.50871 15.8123 9.51381 15.9345 9.51891C16.0601 9.52401 16.3773 9.53592 16.6079 9.53762C16.8332 9.53932 17.218 9.53167 17.965 9.44408C18.5898 9.37096 19.0024 9.32249 19.5778 9.19835C19.5865 9.19665 20.4895 8.99683 21.4567 8.47389C21.5407 8.42883 21.7947 8.29108 21.7869 8.19755C21.7799 8.11166 21.5607 8.01388 21.4029 7.97562C20.415 8.02663 19.4383 8.13207 18.4997 8.28938C18.4105 8.30468 16.2993 8.65246 15.1398 8.43053C14.5409 8.31574 14.1622 7.98412 14.1466 7.96966C14.1301 7.95521 14.1163 7.94245 14.1093 7.93565C14.0677 7.89569 14.066 7.83107 14.1067 7.7894C14.1466 7.74859 14.2133 7.74689 14.2558 7.78685C14.2627 7.7928 14.274 7.80386 14.2887 7.81661C14.2922 7.82001 14.6423 8.12442 15.1805 8.22731C16.3019 8.44158 18.4434 8.08871 18.465 8.0853C19.4157 7.9263 20.4063 7.82001 21.4081 7.76814C21.4177 7.76814 21.4281 7.76814 21.4376 7.77069C21.5269 7.7911 21.9749 7.90674 21.9975 8.18054C22.0157 8.40672 21.7297 8.56147 21.5589 8.65416C20.6524 9.14393 19.7763 9.36756 19.6237 9.39817C19.0379 9.52656 18.621 9.57503 17.9901 9.64901C17.231 9.73829 16.8366 9.74594 16.6061 9.74339C16.3721 9.74169 16.0523 9.72979 15.9258 9.72468C15.8027 9.71958 15.6953 9.71448 15.6 9.71023C15.1588 9.68897 14.9933 9.68047 14.7827 9.75955C14.6155 9.82247 14.4603 9.9245 14.3225 10.064C14.3017 10.0852 14.274 10.0954 14.2471 10.0954V10.0963Z" fill="white"/>
<path d="M10.8092 8.97363C10.7918 8.97363 10.7745 8.96938 10.758 8.96088C10.7069 8.93282 10.6887 8.87074 10.7164 8.82058C10.7806 8.70664 10.8066 8.5978 10.7936 8.49661C10.7468 8.12843 10.2008 7.89035 9.99453 7.80107L9.97633 7.79341C9.95206 7.78321 7.51335 6.69568 5.52529 3.84462C5.3459 3.58698 5.32164 3.3727 5.3095 3.26982L5.3069 3.24686C5.27484 2.99262 5.4005 2.786 5.46723 2.67461C5.4941 2.62954 5.55216 2.61169 5.60069 2.63294C5.74195 2.69416 5.87975 2.76644 6.01061 2.84807C6.24633 2.99432 6.46473 3.17203 6.65799 3.37611C7.03411 3.77235 7.45616 4.12862 7.86521 4.47384C8.133 4.70002 8.40945 4.93386 8.67118 5.17619C9.47455 5.9219 10.5908 6.56388 11.9878 7.08511C12.0424 7.10552 12.0693 7.16504 12.0485 7.21861C12.0277 7.27218 11.967 7.29854 11.9124 7.27813C10.4894 6.74669 9.35062 6.09026 8.52645 5.32584C8.26819 5.08691 7.99347 4.85393 7.72741 4.62945C7.31403 4.28082 6.88764 3.9203 6.50806 3.52066C6.43613 3.44498 6.23073 3.22815 5.89795 3.02238C5.80262 2.96286 5.70295 2.90929 5.60156 2.86082C5.54869 2.95691 5.49843 3.08105 5.51663 3.22135L5.51923 3.24771C5.52963 3.34039 5.54956 3.51385 5.69949 3.72898C7.65462 6.53242 10.0387 7.59529 10.0621 7.6055L10.0803 7.61315C10.3161 7.71519 10.9418 7.98728 11.0033 8.47195C11.0215 8.61735 10.9877 8.76871 10.901 8.92091C10.882 8.95492 10.8456 8.97448 10.8092 8.97448V8.97363Z" fill="white"/>
<path d="M14.1232 7.83168C14.1171 7.83168 14.1111 7.83168 14.105 7.82998C14.0478 7.81977 14.0097 7.7662 14.0192 7.71008C14.2931 6.1855 14.5643 4.87008 14.8252 3.80041C15.223 2.16783 15.2654 1.99692 15.281 1.96461C15.2836 1.95951 15.5401 1.41701 15.6355 0.545457C15.6441 0.469781 15.6476 0.360942 15.5852 0.293769C15.5566 0.263158 15.515 0.2419 15.4604 0.230846C15.4569 0.230846 15.4535 0.229146 15.45 0.228295C15.3755 0.205337 15.3053 0.201086 15.2412 0.214691C15.1649 0.231697 15.0384 0.35329 14.8659 0.576918C14.0192 1.67381 13.6734 3.05894 13.3389 4.39817C13.1968 4.96617 13.0503 5.55372 12.8666 6.11577C12.8605 6.13448 12.8536 6.15829 12.8458 6.1855C12.799 6.34875 12.7123 6.65401 12.4705 6.93121C12.3917 7.02134 12.3033 7.10297 12.2062 7.17525C12.1594 7.21011 12.0935 7.20076 12.0589 7.15484C12.0233 7.10892 12.0329 7.0443 12.0797 7.01029C12.1646 6.94737 12.2426 6.87509 12.3111 6.79686C12.5225 6.55453 12.5988 6.28838 12.6438 6.13023C12.6525 6.10047 12.6594 6.07411 12.6664 6.05285C12.8475 5.49846 12.9931 4.9143 13.1344 4.3497C13.4741 2.99007 13.8251 1.58367 14.6986 0.452775C14.917 0.170475 15.0609 0.0429301 15.1961 0.0131696C15.2957 -0.00893823 15.4015 -0.00298613 15.5089 0.0293253C15.6043 0.0497325 15.6823 0.0913972 15.7403 0.154319C15.8738 0.29802 15.8521 0.501242 15.8443 0.567565C15.7447 1.47654 15.4821 2.03008 15.4708 2.05304C15.4561 2.09896 15.2957 2.75624 15.0297 3.84547C14.7688 4.9143 14.4984 6.22546 14.2255 7.7458C14.2168 7.79597 14.1717 7.83083 14.1215 7.83083L14.1232 7.83168Z" fill="white"/>
<path d="M4.84236 13.9079C4.43591 13.9079 4.13345 13.765 4.00952 13.5048C3.99132 13.4666 3.99826 13.4224 4.02772 13.3918C5.03215 12.3161 6.3529 11.5917 7.63032 10.8919C8.67028 10.3222 9.74491 9.73292 10.641 8.95744C10.6843 8.92003 10.7511 8.92343 10.7901 8.9668C10.8282 9.00931 10.8247 9.07479 10.7805 9.11305C9.86711 9.90298 8.78208 10.4973 7.73258 11.073C6.49156 11.7532 5.20981 12.4556 4.23398 13.4768C4.43331 13.7599 4.95589 13.7047 5.11882 13.68C6.5037 13.4666 7.73258 12.7039 8.92074 11.9667C9.42512 11.6537 9.94597 11.3306 10.4746 11.0509L10.5067 11.0339C10.6453 10.9591 10.9339 10.8043 11.3274 10.7346C11.5432 10.6963 11.765 10.687 11.9869 10.7065C12.045 10.7116 12.0874 10.7618 12.0822 10.8188C12.077 10.8757 12.0259 10.9174 11.9678 10.9123C11.765 10.8944 11.5614 10.9038 11.3638 10.9378C11.0041 11.0016 10.7459 11.1402 10.6063 11.215L10.5725 11.2328C10.05 11.5092 9.53172 11.8306 9.0308 12.141C7.82445 12.8892 6.57736 13.663 5.14915 13.8832C5.03995 13.9002 4.93682 13.9079 4.83889 13.9079H4.84236Z" fill="white"/>
<path d="M15.7612 18.0002C15.477 18.0002 15.165 17.814 14.8894 17.4696C13.9967 16.3532 13.6215 14.9536 13.2584 13.599C13.1076 13.037 12.9516 12.4554 12.7609 11.9035C12.754 11.8823 12.7462 11.8568 12.7367 11.827C12.689 11.6689 12.6084 11.4053 12.3926 11.1655C12.3224 11.0881 12.2435 11.0175 12.1577 10.9555C12.1109 10.9223 12.1005 10.8568 12.1343 10.8109C12.169 10.765 12.2349 10.7548 12.2817 10.7879C12.3796 10.8585 12.4706 10.9384 12.5503 11.0277C12.7973 11.3015 12.8892 11.6042 12.9386 11.7666C12.9464 11.7938 12.9542 11.8168 12.9602 11.8355C13.1535 12.3942 13.3104 12.9792 13.462 13.5446C13.82 14.8779 14.1891 16.2571 15.0549 17.3395C15.1572 17.467 15.5012 17.8565 15.8435 17.7825C15.8392 16.3829 15.3886 15.0114 14.9526 13.6841C14.5843 12.5617 14.203 11.401 14.0834 10.2123C14.0773 10.1553 14.1198 10.1052 14.1779 10.0992C14.2359 10.0932 14.2871 10.1349 14.2931 10.1919C14.411 11.3585 14.788 12.5081 15.1537 13.6203C15.6026 14.9867 16.0663 16.3999 16.0541 17.859C16.0541 17.9007 16.0281 17.9381 15.9883 17.9543C15.9155 17.9832 15.8392 17.9976 15.7603 17.9976L15.7612 18.0002Z" fill="white"/>
<path d="M15.0426 1.43997C14.9906 1.43997 14.9412 1.42637 14.8996 1.40001C14.7523 1.30562 14.7679 1.09985 14.8138 0.985061C14.8632 0.861768 14.9837 0.734223 15.131 0.746977C15.2012 0.75293 15.2471 0.788642 15.2653 0.802247C15.3867 0.89493 15.4508 1.1024 15.3529 1.26226C15.3017 1.34559 15.2125 1.40936 15.1145 1.43147C15.0903 1.43657 15.066 1.43997 15.0426 1.43997ZM15.0149 1.22655C15.0261 1.23335 15.0452 1.23505 15.0669 1.22995C15.1085 1.22059 15.1509 1.19083 15.1726 1.15597C15.2142 1.08795 15.1778 0.997816 15.1353 0.964654C15.1284 0.959552 15.1206 0.95275 15.1128 0.95275C15.0885 0.949349 15.0339 1.00122 15.0105 1.06074C14.9871 1.11941 14.9845 1.20784 15.0149 1.2274V1.22655Z" fill="white"/>
<path d="M14.7775 2.32475C14.7342 2.32475 14.6909 2.31284 14.6554 2.28903C14.599 2.25162 14.5635 2.187 14.5592 2.11217C14.554 2.03139 14.5852 1.95402 14.6424 1.9047C14.6961 1.85878 14.7741 1.83752 14.8503 1.84858C14.9136 1.85793 14.9647 1.88769 14.9925 1.93276C15.0098 1.95912 15.0167 1.99228 15.015 2.0399C15.0124 2.10707 15.0089 2.21931 14.911 2.28393C14.8711 2.31029 14.8243 2.3239 14.7784 2.3239L14.7775 2.32475ZM14.7732 2.11727C14.7775 2.11727 14.7871 2.11727 14.7914 2.11387C14.7983 2.10707 14.8009 2.07646 14.8018 2.0535C14.7931 2.0535 14.7845 2.0569 14.7793 2.06115C14.7663 2.07306 14.7645 2.10707 14.7723 2.11812L14.7732 2.11727Z" fill="white"/>
<path d="M14.319 3.86343C14.2739 3.86343 14.2289 3.85237 14.189 3.82942C14.0789 3.76649 14.0512 3.63895 14.0616 3.54882C14.0746 3.43148 14.1552 3.36345 14.2081 3.31924C14.2462 3.28692 14.293 3.25376 14.3563 3.25036C14.4377 3.24526 14.5192 3.29458 14.5582 3.37365C14.5894 3.43743 14.5894 3.4944 14.585 3.54712C14.5772 3.6381 14.566 3.76224 14.4516 3.82857C14.4117 3.85152 14.3649 3.86343 14.319 3.86343ZM14.2947 3.65085C14.3103 3.65936 14.332 3.65765 14.3441 3.65085C14.3658 3.6381 14.371 3.57773 14.3753 3.52841C14.3788 3.491 14.3753 3.47824 14.3693 3.46379C14.3693 3.46209 14.3675 3.46124 14.3667 3.45954C14.3632 3.46209 14.358 3.46549 14.3502 3.47229C14.3025 3.5131 14.2748 3.53691 14.2713 3.57177C14.2696 3.58368 14.2705 3.6364 14.2947 3.65V3.65085Z" fill="white"/>
<path d="M13.4194 6.62054C13.3838 6.62054 13.3492 6.61374 13.3162 6.59674C13.2278 6.55167 13.1732 6.44368 13.168 6.30678C13.1637 6.18264 13.2036 6.02363 13.3275 5.94966C13.4341 5.88589 13.6066 5.88503 13.6941 5.98537C13.727 6.02278 13.7374 6.0636 13.7444 6.10271C13.7652 6.2192 13.7929 6.37906 13.6742 6.5049C13.6126 6.57038 13.5138 6.62139 13.4194 6.62139V6.62054ZM13.4133 6.41307C13.428 6.41817 13.4844 6.40032 13.5199 6.3629C13.5641 6.31614 13.5554 6.24301 13.5372 6.13672C13.5346 6.12142 13.5329 6.11632 13.532 6.11632C13.5225 6.10951 13.467 6.10781 13.4367 6.12567C13.4029 6.14608 13.3786 6.2141 13.3778 6.28723C13.3778 6.3663 13.4038 6.40712 13.4124 6.41307H13.4133Z" fill="white"/>
<path d="M13.4454 7.27074C13.4289 7.27074 13.4124 7.26734 13.3969 7.25884L13.0658 7.08878C13.0138 7.06242 12.9939 7.00034 13.0207 6.94933C13.0476 6.89916 13.1109 6.87875 13.1629 6.90511L13.4939 7.07517C13.5459 7.10153 13.5658 7.1636 13.539 7.21462C13.5199 7.25033 13.4835 7.26989 13.4454 7.26989V7.27074Z" fill="white"/>
<path d="M13.1534 8.19671C13.1456 8.19671 13.1378 8.19671 13.13 8.19416C12.9654 8.15844 12.8241 8.0479 12.7504 7.89995C12.7253 7.84893 12.747 7.78686 12.7998 7.7622C12.8518 7.73754 12.9151 7.7588 12.9402 7.81067C12.9853 7.90165 13.0754 7.97138 13.176 7.99348C13.2332 8.00624 13.2687 8.06151 13.2557 8.11678C13.2444 8.16525 13.2011 8.19756 13.1526 8.19756L13.1534 8.19671Z" fill="white"/>
<path d="M11.9445 8.71602C11.9124 8.71602 11.8812 8.70242 11.8604 8.67521C11.8249 8.63014 11.8344 8.56467 11.8804 8.53066C11.9384 8.48729 11.9809 8.42522 12 8.35635C12.0156 8.30108 12.0728 8.26877 12.1291 8.28407C12.1854 8.29938 12.2184 8.3555 12.2028 8.41077C12.1716 8.52301 12.1022 8.62419 12.0078 8.69477C11.9887 8.70922 11.9662 8.71602 11.9436 8.71602H11.9445Z" fill="white"/>
<path d="M11.212 7.94168C11.1618 7.94168 11.1176 7.90682 11.1089 7.85665C11.0985 7.80053 11.1358 7.74696 11.1938 7.73591C11.2614 7.724 11.3273 7.68744 11.3724 7.63727C11.4114 7.59476 11.4772 7.5905 11.5214 7.62877C11.5648 7.66703 11.5691 7.73165 11.5301 7.77502C11.453 7.8609 11.3464 7.91957 11.232 7.93998C11.2259 7.94083 11.219 7.94168 11.2129 7.94168H11.212Z" fill="white"/>
<path d="M13.3016 9.22316C13.254 9.22316 13.2106 9.1917 13.1994 9.14408C13.1794 9.06075 13.182 8.97402 13.2089 8.89324C13.2262 8.83882 13.286 8.80906 13.3415 8.82607C13.397 8.84308 13.4273 8.90175 13.4099 8.95617C13.3952 9.00038 13.3935 9.05055 13.4047 9.09561C13.4186 9.15088 13.384 9.207 13.3268 9.22061C13.3181 9.22231 13.3103 9.22316 13.3016 9.22316Z" fill="white"/>
<path d="M14.6579 9.19729C14.6085 9.19729 14.5643 9.16243 14.5548 9.11311L14.5054 8.85292C14.495 8.7968 14.5323 8.74323 14.5895 8.73218C14.6467 8.72197 14.7013 8.75853 14.7125 8.81465L14.7619 9.07485C14.7723 9.13097 14.7351 9.18453 14.6779 9.19559C14.6718 9.19644 14.6649 9.19729 14.6588 9.19729H14.6579Z" fill="white"/>
<path d="M12.4783 9.60875C12.4783 9.60875 12.4713 9.60875 12.4679 9.60875C12.3483 9.59769 12.2477 9.50161 12.2321 9.38512C12.2243 9.32815 12.2659 9.27713 12.3231 9.26948C12.3803 9.26183 12.4332 9.30264 12.441 9.35876C12.4436 9.37917 12.4661 9.40127 12.4878 9.40298C12.5459 9.40808 12.5883 9.45909 12.5831 9.51521C12.5779 9.56878 12.532 9.60875 12.4783 9.60875Z" fill="white"/>
<path d="M12.3482 10.3238C12.3387 10.3238 12.3283 10.3221 12.3187 10.3196C12.1792 10.2796 12.0769 10.1478 12.0752 10.005C12.0752 9.94801 12.1211 9.90124 12.1792 9.90039H12.1801C12.2381 9.90039 12.2849 9.94631 12.2858 10.0024C12.2858 10.0543 12.3265 10.1062 12.3777 10.1206C12.4331 10.1368 12.466 10.1937 12.4496 10.249C12.4366 10.2941 12.3941 10.3238 12.3482 10.3238Z" fill="white"/>
<path d="M8.27337 11.9339C8.23783 11.9339 8.20317 11.9262 8.17024 11.9101C8.08184 11.865 8.02638 11.757 8.02204 11.6193C8.01771 11.4951 8.05757 11.3361 8.1815 11.2622C8.2881 11.1984 8.46056 11.1975 8.54809 11.2979C8.58102 11.3353 8.59142 11.3761 8.59835 11.4152C8.61829 11.5317 8.64689 11.6916 8.52816 11.8174C8.46576 11.8829 8.36783 11.9339 8.27337 11.9339ZM8.2673 11.7264C8.28203 11.7315 8.33836 11.7137 8.3739 11.6763C8.41809 11.6295 8.40943 11.5564 8.39123 11.4501C8.38863 11.4348 8.3869 11.4297 8.38603 11.4288C8.3765 11.422 8.32103 11.4203 8.2907 11.4382C8.2569 11.4586 8.23177 11.5266 8.23177 11.5997C8.23177 11.678 8.25777 11.7196 8.26643 11.7256L8.2673 11.7264Z" fill="white"/>
<path d="M20.9227 8.54507C20.8777 8.54507 20.8326 8.53401 20.7928 8.51106C20.6827 8.44813 20.655 8.32059 20.6654 8.23046C20.6784 8.11312 20.759 8.04509 20.8118 8.00088C20.85 7.96856 20.8967 7.9354 20.96 7.932C21.0423 7.9269 21.1229 7.97622 21.1619 8.0553C21.1931 8.11907 21.1931 8.17604 21.1888 8.22791C21.181 8.31889 21.1697 8.44303 21.0553 8.51021C21.0155 8.53316 20.9687 8.54507 20.9227 8.54507ZM20.8985 8.33249C20.9141 8.341 20.9357 8.3393 20.9479 8.33249C20.9695 8.31974 20.9747 8.25937 20.9791 8.21005C20.9825 8.17264 20.9791 8.15988 20.973 8.14543C20.973 8.14373 20.9713 8.14288 20.9704 8.14203C20.9669 8.14458 20.9617 8.14798 20.9539 8.15478C20.9063 8.1956 20.8785 8.2194 20.8751 8.25427C20.8733 8.26617 20.8742 8.31889 20.8985 8.33249Z" fill="white"/>
<path d="M20.2614 8.6851C20.2181 8.6851 20.1748 8.67319 20.1392 8.64939C20.0829 8.61197 20.0474 8.54735 20.043 8.47252C20.0378 8.39174 20.069 8.31437 20.1254 8.26505C20.1791 8.21913 20.2571 8.19788 20.3334 8.20893C20.3966 8.21828 20.4478 8.24804 20.4755 8.29311C20.4928 8.32117 20.4998 8.35348 20.498 8.40025C20.4954 8.46742 20.492 8.57966 20.394 8.64428C20.3542 8.67064 20.3074 8.68425 20.2614 8.68425V8.6851ZM20.2571 8.47848C20.2614 8.47848 20.271 8.47848 20.2753 8.47507C20.2822 8.46827 20.2848 8.43766 20.2857 8.4147C20.277 8.4147 20.2684 8.4181 20.2632 8.42236C20.2502 8.43341 20.2493 8.46827 20.2562 8.47933L20.2571 8.47848Z" fill="white"/>
<path d="M18.9487 9.06437C18.9036 9.06437 18.8585 9.05332 18.8187 9.03036C18.7077 8.96744 18.6809 8.83989 18.6913 8.74976C18.7043 8.63242 18.7849 8.56439 18.8377 8.51933C18.8759 8.48702 18.9227 8.45386 18.9859 8.45045C19.0683 8.4462 19.1497 8.49467 19.1879 8.57375C19.2191 8.63752 19.2191 8.69449 19.2147 8.74636C19.2069 8.83734 19.1957 8.96148 19.0813 9.02781C19.0414 9.05077 18.9946 9.06267 18.9487 9.06267V9.06437ZM18.9244 8.8518C18.94 8.8603 18.9625 8.8586 18.9738 8.8518C18.9955 8.83904 19.0007 8.77867 19.005 8.72935C19.0085 8.69194 19.005 8.67919 18.9989 8.66473C18.9989 8.66303 18.9972 8.66218 18.9963 8.66133C18.9929 8.66388 18.9877 8.66728 18.9799 8.67408C18.9322 8.7149 18.9053 8.73871 18.901 8.77357C18.8993 8.78547 18.9001 8.83819 18.9244 8.8518Z" fill="white"/>
<path d="M7.58614 12.0874C7.54281 12.0874 7.49948 12.0755 7.46395 12.0517C7.40761 12.0143 7.37208 11.9497 7.36775 11.8749C7.36255 11.7941 7.39375 11.7167 7.45008 11.6674C7.50381 11.6215 7.58181 11.6002 7.65807 11.6113C7.72134 11.6206 7.77247 11.6504 7.8002 11.6955C7.81753 11.7218 7.82447 11.755 7.82273 11.8026C7.82013 11.8698 7.81667 11.982 7.71874 12.0466C7.67887 12.073 7.63207 12.0866 7.58614 12.0866V12.0874ZM7.58181 11.8808C7.58614 11.8808 7.59567 11.8808 7.60001 11.8774C7.60694 11.8706 7.60954 11.84 7.61127 11.817C7.60261 11.817 7.59394 11.8204 7.58874 11.8247C7.57574 11.8366 7.57487 11.8706 7.58181 11.8817V11.8808Z" fill="white"/>
<path d="M6.11365 13.0718C6.06165 13.0718 6.01225 13.0582 5.97065 13.0318C5.82333 12.9375 5.83893 12.7317 5.88486 12.6169C5.93426 12.4936 6.05385 12.3661 6.20205 12.3788C6.27138 12.3848 6.31817 12.4205 6.33551 12.4341C6.45684 12.5268 6.52097 12.7342 6.4239 12.8941C6.37277 12.9774 6.28351 13.0412 6.18558 13.0633C6.16131 13.0684 6.13705 13.0718 6.11365 13.0718ZM6.18211 12.5846C6.15611 12.5846 6.10498 12.6339 6.08158 12.6926C6.05818 12.7512 6.05558 12.8397 6.08678 12.8592C6.09805 12.866 6.11712 12.8677 6.13878 12.8626C6.18038 12.8533 6.22284 12.8235 6.24364 12.7887C6.28524 12.7206 6.24971 12.6297 6.20638 12.5973C6.20031 12.5922 6.19165 12.5854 6.18385 12.5854C6.18385 12.5854 6.18298 12.5854 6.18211 12.5854V12.5846Z" fill="white"/>
<path d="M10.192 7.4136C10.14 7.4136 10.0906 7.4 10.049 7.37364C9.9017 7.27926 9.91729 7.07348 9.96323 6.95869C10.0126 6.8354 10.134 6.70786 10.2804 6.72061C10.3497 6.72656 10.3965 6.76228 10.4139 6.77588C10.5352 6.86941 10.5993 7.07604 10.5023 7.23589C10.4511 7.31922 10.3619 7.38299 10.2639 7.4051C10.2397 7.4102 10.2154 7.4136 10.192 7.4136ZM10.1643 7.20018C10.1756 7.20783 10.1946 7.20868 10.2163 7.20358C10.2579 7.19423 10.3003 7.16447 10.3211 7.1296C10.3627 7.06158 10.3263 6.97145 10.2839 6.93829C10.2778 6.93319 10.2691 6.92638 10.2613 6.92638C10.2345 6.92298 10.1825 6.974 10.1591 7.03437C10.1357 7.09304 10.1331 7.18147 10.1643 7.20103V7.20018Z" fill="white"/>
<path d="M13.6371 11.5962C13.5851 11.5962 13.5357 11.5826 13.4941 11.5563C13.3468 11.4619 13.3624 11.2561 13.4083 11.1413C13.4577 11.018 13.5764 10.8905 13.7255 10.9032C13.7948 10.9092 13.8416 10.9449 13.8589 10.9585C13.9803 11.0512 14.0444 11.2587 13.9473 11.4185C13.8962 11.5027 13.8069 11.5656 13.7082 11.5877C13.6839 11.5928 13.6596 11.5962 13.6362 11.5962H13.6371ZM13.6094 11.3828C13.6206 11.3896 13.6397 11.3913 13.6614 11.3862C13.703 11.3768 13.7454 11.3471 13.7671 11.3122C13.8087 11.2442 13.7723 11.1541 13.7298 11.1209C13.7237 11.1158 13.7142 11.109 13.7073 11.109C13.6856 11.1056 13.6284 11.1566 13.605 11.217C13.5816 11.2757 13.579 11.3641 13.6102 11.3836L13.6094 11.3828Z" fill="white"/>
<path d="M15.0956 16.6851C15.0436 16.6851 14.9942 16.6715 14.9526 16.6451C14.8053 16.5507 14.8209 16.345 14.8668 16.2302C14.9162 16.1069 15.0367 15.9793 15.184 15.9921C15.2533 15.998 15.3001 16.0338 15.3174 16.0474C15.4388 16.14 15.5029 16.3475 15.4058 16.5074C15.3547 16.5907 15.2654 16.6545 15.1675 16.6766C15.1432 16.6817 15.119 16.6851 15.0956 16.6851ZM15.0679 16.4717C15.0791 16.4793 15.0982 16.4802 15.1198 16.4751C15.1614 16.4657 15.2039 16.436 15.2247 16.4011C15.2663 16.3331 15.2308 16.2421 15.1874 16.2098C15.1814 16.2047 15.1727 16.1979 15.1649 16.1979C15.1415 16.1936 15.086 16.2455 15.0627 16.3059C15.0393 16.3645 15.0367 16.453 15.0679 16.4725V16.4717Z" fill="white"/>
<path d="M14.1821 14.1966C14.1465 14.1966 14.1119 14.1889 14.0789 14.1728C13.9905 14.1277 13.9351 14.0197 13.9307 13.882C13.9264 13.7578 13.9663 13.5988 14.0902 13.5249C14.1968 13.4611 14.3693 13.4602 14.4568 13.5606C14.4897 13.598 14.5001 13.6388 14.507 13.6779C14.5278 13.7944 14.5556 13.9543 14.4368 14.0801C14.3753 14.1456 14.2765 14.1966 14.1821 14.1966ZM14.176 13.9891C14.1907 13.9942 14.2471 13.9764 14.2826 13.9389C14.3268 13.8922 14.3181 13.8191 14.2999 13.7128C14.2973 13.6975 14.2956 13.6924 14.2947 13.6915C14.2852 13.6847 14.2297 13.683 14.1994 13.7009C14.1656 13.7213 14.1405 13.7893 14.1405 13.8624C14.1405 13.9406 14.1665 13.9823 14.1751 13.9883L14.176 13.9891Z" fill="white"/>
<path d="M13.9619 13.2447C13.9185 13.2447 13.8752 13.2328 13.8397 13.209C13.7833 13.1715 13.7478 13.1069 13.7435 13.0321C13.7383 12.9513 13.7695 12.8739 13.8258 12.8246C13.8795 12.7787 13.9575 12.7574 14.0338 12.7685C14.0971 12.7779 14.1482 12.8076 14.1759 12.8527C14.1933 12.879 14.2002 12.9122 14.1985 12.9598C14.1959 13.027 14.1924 13.1392 14.0945 13.2039C14.0546 13.2302 14.0078 13.2438 13.9619 13.2438V13.2447ZM13.9575 13.0372C13.9619 13.0372 13.9714 13.0372 13.9757 13.0338C13.9827 13.027 13.9853 12.9964 13.9861 12.9734C13.9775 12.9734 13.9688 12.9768 13.9636 12.9811C13.9506 12.993 13.9497 13.027 13.9567 13.038L13.9575 13.0372Z" fill="white"/>
<path d="M6.31832 4.08451C6.27499 4.08451 6.23166 4.07261 6.19612 4.0488C6.13979 4.01139 6.10426 3.94676 6.09993 3.87194C6.09473 3.79116 6.12593 3.71378 6.18226 3.66446C6.23599 3.61855 6.31399 3.59729 6.39025 3.60834C6.45351 3.6177 6.50378 3.64746 6.53238 3.69252C6.54971 3.71973 6.55664 3.7529 6.55491 3.79966C6.55231 3.86684 6.54884 3.97908 6.45091 4.0437C6.41105 4.07006 6.36425 4.08366 6.31832 4.08366V4.08451ZM6.31399 3.87789C6.31919 3.87789 6.32785 3.87789 6.33218 3.87449C6.33912 3.86769 6.34172 3.83708 6.34258 3.81412C6.33392 3.81412 6.32525 3.81752 6.32005 3.82177C6.30705 3.83282 6.30619 3.86769 6.31312 3.87874L6.31399 3.87789Z" fill="white"/>
<path d="M6.83118 4.90579C6.77918 4.90579 6.72978 4.89219 6.68818 4.86583C6.54086 4.77144 6.55646 4.56567 6.60239 4.45088C6.65178 4.32759 6.77051 4.20004 6.91957 4.2128C6.98891 4.21875 7.0357 4.25446 7.05304 4.26807C7.17437 4.36075 7.2385 4.56822 7.14143 4.72808C7.0903 4.81141 7.00104 4.87518 6.90311 4.89729C6.87884 4.90239 6.85458 4.90579 6.83118 4.90579ZM6.89964 4.41857C6.87364 4.41857 6.82165 4.46789 6.79825 4.52656C6.77485 4.58523 6.77225 4.67366 6.80345 4.69322C6.81471 4.70002 6.83378 4.70172 6.85544 4.69662C6.89704 4.68727 6.93951 4.6575 6.96031 4.62264C7.00191 4.55462 6.96637 4.46364 6.92304 4.43132C6.91697 4.42622 6.90744 4.41942 6.90051 4.41942C6.90051 4.41942 6.89964 4.41942 6.89878 4.41942L6.89964 4.41857Z" fill="white"/>
<path d="M7.66663 5.71526C7.61463 5.71526 7.56523 5.70165 7.52363 5.67529C7.3763 5.58091 7.3919 5.37514 7.43784 5.26035C7.48723 5.13705 7.6077 5.01036 7.75502 5.02226C7.82522 5.02821 7.87115 5.06393 7.88935 5.07753C8.01068 5.17022 8.07481 5.37769 7.97688 5.53754C7.92575 5.62087 7.83649 5.68465 7.73856 5.70675C7.71429 5.71186 7.69003 5.71526 7.66663 5.71526ZM7.6389 5.50183C7.65016 5.50863 7.66923 5.51034 7.69089 5.50523C7.73249 5.49588 7.77496 5.46612 7.79662 5.43126C7.83822 5.36323 7.80182 5.2731 7.75936 5.23994C7.75242 5.23484 7.74462 5.22804 7.73682 5.22804C7.71256 5.22378 7.65796 5.2765 7.63456 5.33602C7.61116 5.39469 7.60856 5.48313 7.6389 5.50268V5.50183Z" fill="white"/>
</g>
<defs>
<filter id="filter0_d_12153_5403" x="0" y="0" width="26" height="26" filterUnits="userSpaceOnUse" color-interpolation-filters="sRGB">
<feFlood flood-opacity="0" result="BackgroundImageFix"/>
<feColorMatrix in="SourceAlpha" type="matrix" values="0 0 0 0 0 0 0 0 0 0 0 0 0 0 0 0 0 0 127 0" result="hardAlpha"/>
<feOffset dy="4"/>
<feGaussianBlur stdDeviation="2"/>
<feComposite in2="hardAlpha" operator="out"/>
<feColorMatrix type="matrix" values="0 0 0 0 0 0 0 0 0 0 0 0 0 0 0 0 0 0 0.25 0"/>
<feBlend mode="normal" in2="BackgroundImageFix" result="effect1_dropShadow_12153_5403"/>
<feBlend mode="normal" in="SourceGraphic" in2="effect1_dropShadow_12153_5403" result="shape"/>
</filter>
<clipPath id="clip0_12153_5403">
<rect width="18" height="18" fill="white" transform="translate(4)"/>
</clipPath>
</defs>
</svg>
